<svg width="46" height="46" viewBox="0 0 46 46" fill="none" xmlns="http://www.w3.org/2000/svg">
<path d="M20.125 5.75C22.7713 5.75 24.9167 7.89531 24.9167 10.5417V21.0833H35.4583C38.1047 21.0833 40.25 23.2287 40.25 25.875V35.4583C40.25 38.1047 38.1047 40.25 35.4583 40.25H10.5417C7.89531 40.25 5.75 38.1047 5.75 35.4583V10.5417C5.75 7.89531 7.89531 5.75 10.5417 5.75H20.125ZM21.0833 24.9167H9.58333V35.4583C9.58333 35.9875 10.0124 36.4167 10.5417 36.4167H21.0833V24.9167ZM35.4583 24.9167H24.9167V36.4167H35.4583C35.9875 36.4167 36.4167 35.9875 36.4167 35.4583V25.875C36.4167 25.3458 35.9875 24.9167 35.4583 24.9167ZM20.125 9.58334H10.5417C10.0124 9.58334 9.58333 10.0124 9.58333 10.5417V21.0833H21.0833V10.5417C21.0833 10.0124 20.6542 9.58334 20.125 9.58334ZM34.2765 3.84624L34.5 3.83334C35.4829 3.83334 36.293 4.57325 36.4038 5.52648L36.4167 5.75V9.58334H40.25C41.2329 9.58334 42.043 10.3232 42.1538 11.2765L42.1667 11.5C42.1667 12.4829 41.4268 13.2931 40.4735 13.4038L40.25 13.4167H36.4167V17.25C36.4167 18.2329 35.6768 19.0431 34.7235 19.1538L34.5 19.1667C33.5171 19.1667 32.707 18.4268 32.5962 17.4735L32.5833 17.25V13.4167H28.75C27.7671 13.4167 26.957 12.6768 26.8462 11.7235L26.8333 11.5C26.8333 10.5171 27.5732 9.70694 28.5265 9.59624L28.75 9.58334H32.5833V5.75C32.5833 4.76706 33.3232 3.95694 34.2765 3.84624Z" fill="#246097"/>
</svg>
