<svg width="24" height="24" viewBox="0 0 24 24" fill="none" xmlns="http://www.w3.org/2000/svg">
<path d="M9 1C4.85786 1 1.5 4.35786 1.5 8.5C1.5 10.4319 2.56439 12.3007 3.76779 13.8164C4.98797 15.3533 6.44602 16.6449 7.4234 17.4378C8.3487 18.1885 9.6513 18.1885 10.5766 17.4378C11.554 16.6449 13.012 15.3533 14.2322 13.8164C15.4356 12.3007 16.5 10.4319 16.5 8.5C16.5 4.35786 13.1421 1 9 1ZM11.5 8.5C11.5 9.8807 10.3807 11 9 11C7.6193 11 6.5 9.8807 6.5 8.5C6.5 7.11929 7.6193 6 9 6C10.3807 6 11.5 7.11929 11.5 8.5ZM14.6816 14.8467C14.3183 15.2788 13.942 15.6885 13.5683 16.0705C13.9239 16.1699 14.2552 16.2803 14.5587 16.3998C15.2537 16.6736 15.7652 16.9809 16.0905 17.2839C16.4147 17.5858 16.5 17.8284 16.5 18.0001C16.5 18.1718 16.4147 18.4144 16.0905 18.7163C15.7652 19.0193 15.2537 19.3266 14.5587 19.6004C13.1734 20.1461 11.2084 20.5001 9 20.5001C6.79163 20.5001 4.8266 20.1461 3.44126 19.6004C2.74635 19.3266 2.23477 19.0193 1.90949 18.7163C1.5853 18.4144 1.5 18.1718 1.5 18.0001C1.5 17.8284 1.5853 17.5858 1.90949 17.2839C2.23477 16.9809 2.74635 16.6736 3.44126 16.3998C3.74476 16.2803 4.07607 16.1699 4.43168 16.0705C4.05802 15.6885 3.68168 15.2788 3.31839 14.8467C3.17207 14.8972 3.02969 14.9497 2.89148 15.0042C2.09344 15.3186 1.39682 15.7115 0.88716 16.1862C0.3764 16.6619 0 17.2743 0 18.0001C0 18.7259 0.3764 19.3383 0.88716 19.814C1.39682 20.2887 2.09344 20.6816 2.89148 20.996C4.49205 21.6265 6.65202 22.0001 9 22.0001C11.348 22.0001 13.508 21.6265 15.1085 20.996C15.9066 20.6816 16.6032 20.2887 17.1128 19.814C17.6236 19.3383 18 18.7259 18 18.0001C18 17.2743 17.6236 16.6619 17.1128 16.1862C16.6032 15.7115 15.9066 15.3186 15.1085 15.0042C14.9703 14.9497 14.8279 14.8972 14.6816 14.8467Z" fill="#246097"/>
</svg>
