<svg width="40" height="42" viewBox="0 0 40 42" fill="none" xmlns="http://www.w3.org/2000/svg">
<g clip-path="url(#clip0_6_322)">
<path d="M34.8005 28.357L32.5255 30.607C30.8486 32.2526 28.673 34.3686 25.9975 36.9551C24.3258 38.5717 21.6735 38.5715 20.0019 36.9548L13.3106 30.4459C12.4696 29.6203 11.7657 28.9239 11.1987 28.357C4.68123 21.8395 4.68123 11.2726 11.1987 4.75512C17.7161 -1.76233 28.2831 -1.76233 34.8005 4.75512C41.318 11.2726 41.318 21.8395 34.8005 28.357ZM27.7917 17.0826C27.7917 14.4359 25.6462 12.2905 22.9996 12.2905C20.3531 12.2905 18.2075 14.4359 18.2075 17.0826C18.2075 19.7291 20.3531 21.8746 22.9996 21.8746C25.6462 21.8746 27.7917 19.7291 27.7917 17.0826Z" fill="#246097"/>
</g>
<defs>
<clipPath id="clip0_6_322">
<rect width="40" height="42" fill="white"/>
</clipPath>
</defs>
</svg>
