<svg width="53" height="52" viewBox="0 0 53 52" fill="none" xmlns="http://www.w3.org/2000/svg">
<path d="M34.3333 17.3333C34.3333 21.5496 30.8443 25 26.5 25C22.1557 25 18.6667 21.5496 18.6667 17.3333C18.6667 13.117 22.1557 9.66667 26.5 9.66667C30.8443 9.66667 34.3333 13.117 34.3333 17.3333Z" stroke="#246097" stroke-width="2" stroke-linecap="round"/>
<path d="M32.6661 16.7572C33.4088 15.495 34.6356 14.5687 36.0812 14.1886C37.5272 13.8085 39.0674 14.008 40.3613 14.7409C41.6546 15.4735 42.5927 16.6767 42.9763 18.0811C43.3597 19.485 43.1595 20.9815 42.4172 22.2428C41.6745 23.505 40.4477 24.4313 39.0021 24.8114C37.5561 25.1915 36.016 24.992 34.722 24.2591C33.4287 23.5265 32.4906 22.3233 32.1071 20.9189C31.7237 19.515 31.9238 18.0185 32.6661 16.7572L32.6661 16.7572Z" stroke="#246097" stroke-width="2"/>
<path d="M10.5828 16.7572C11.3255 15.495 12.5523 14.5687 13.9979 14.1886C15.4439 13.8085 16.984 14.008 18.278 14.7409C19.5713 15.4735 20.5094 16.6767 20.8929 18.0811C21.2763 19.485 21.0762 20.9815 20.3339 22.2428C19.5912 23.505 18.3644 24.4313 16.9188 24.8114C15.4728 25.1915 13.9326 24.992 12.6387 24.2591C11.3454 23.5265 10.4073 22.3233 10.0237 20.9189C9.64034 19.515 9.8405 18.0185 10.5828 16.7572L10.5828 16.7572Z" stroke="#246097" stroke-width="2"/>
<path d="M37.2803 39L36.3007 39.2011L36.4647 40H37.2803V39ZM46.1468 37.8904L47.1155 37.6423L47.1155 37.6423L46.1468 37.8904ZM32.641 31.8728L32.0434 31.071L30.8566 31.9554L32.1201 32.7264L32.641 31.8728ZM45.2395 38H37.2803V40H45.2395V38ZM45.178 38.1385C45.1755 38.1285 45.1732 38.1069 45.1795 38.0804C45.1853 38.0556 45.1962 38.0367 45.2065 38.0243C45.2272 37.9994 45.2451 38 45.2395 38V40C46.4197 40 47.4451 38.9294 47.1155 37.6423L45.178 38.1385ZM37.5417 31.3333C40.2021 31.3333 41.935 32.4721 43.0997 33.8741C44.2923 35.3096 44.8961 37.0377 45.178 38.1385L47.1155 37.6423C46.7986 36.405 46.099 34.3546 44.6381 32.5961C43.1495 30.8041 40.8792 29.3333 37.5417 29.3333V31.3333ZM33.2385 32.6747C34.2944 31.8878 35.6831 31.3333 37.5417 31.3333V29.3333C35.2488 29.3333 33.4417 30.029 32.0434 31.071L33.2385 32.6747ZM32.1201 32.7264C34.8298 34.3799 35.891 37.2051 36.3007 39.2011L38.2598 38.7989C37.8035 36.5759 36.564 33.0952 33.1619 31.0192L32.1201 32.7264Z" fill="#246097"/>
<path d="M20.359 31.8728L20.8799 32.7264L22.1434 31.9554L20.9566 31.071L20.359 31.8728ZM6.85323 37.8904L5.8845 37.6422H5.8845L6.85323 37.8904ZM15.7197 39V40H16.5353L16.6993 39.2011L15.7197 39ZM15.4584 31.3333C17.3169 31.3333 18.7056 31.8878 19.7615 32.6746L20.9566 31.071C19.5584 30.029 17.7512 29.3333 15.4584 29.3333V31.3333ZM7.82196 38.1385C8.10389 37.0377 8.70777 35.3096 9.90032 33.8741C11.065 32.4721 12.7979 31.3333 15.4584 31.3333V29.3333C12.1208 29.3333 9.85057 30.8041 8.36191 32.5961C6.90107 34.3546 6.20137 36.405 5.8845 37.6422L7.82196 38.1385ZM7.76049 38C7.75487 38 7.77279 37.9994 7.79347 38.0243C7.80381 38.0367 7.81466 38.0556 7.82052 38.0804C7.82677 38.1069 7.82451 38.1285 7.82196 38.1385L5.8845 37.6422C5.55485 38.9294 6.58032 40 7.76049 40V38ZM15.7197 38H7.76049V40H15.7197V38ZM16.6993 39.2011C17.109 37.2051 18.1702 34.3799 20.8799 32.7264L19.8381 31.0192C16.436 33.0951 15.1965 36.5758 14.7401 38.7989L16.6993 39.2011Z" fill="#246097"/>
<path d="M26.5 30.3333C35.4747 30.3333 37.1547 37.4903 37.4692 40.1699C37.5336 40.7184 37.094 41.1667 36.5417 41.1667H16.4583C15.9061 41.1667 15.4664 40.7184 15.5308 40.1699C15.8453 37.4903 17.5253 30.3333 26.5 30.3333Z" stroke="#246097" stroke-width="2" stroke-linecap="round"/>
</svg>
