<svg width="18" height="20" viewBox="0 0 18 20" fill="none" xmlns="http://www.w3.org/2000/svg">
<path d="M13.6891 16.052L14.8771 14.8771C18.2804 11.4738 18.2804 5.95583 14.8771 2.5525C11.4737 -0.850833 5.95583 -0.850833 2.5525 2.5525C-0.850833 5.95583 -0.850833 11.4738 2.5525 14.8771C2.84859 15.1732 3.21617 15.5368 3.65532 15.9679L7.14937 19.3668C8.02232 20.211 9.40731 20.2111 10.2803 19.367C11.6774 18.0163 12.8134 16.9113 13.6891 16.052ZM8.71451 4.98627C9.12907 4.98627 9.46516 5.32235 9.46516 5.73692V7.98885H11.9673C12.3819 7.98885 12.718 8.32497 12.718 8.73953C12.718 9.15408 12.3819 9.49017 11.9673 9.49017H9.46516V11.7421C9.46516 12.1567 9.12907 12.4927 8.71451 12.4927C8.29996 12.4927 7.96387 12.1567 7.96387 11.7421V9.49017H5.46172C5.04715 9.49017 4.71107 9.15408 4.71107 8.73953C4.71107 8.32497 5.04715 7.98885 5.46172 7.98885H7.96387V5.73692C7.96387 5.32235 8.29996 4.98627 8.71451 4.98627Z" fill="#246097"/>
</svg>
