<svg width="164" height="164" viewBox="0 0 164 164" fill="none" xmlns="http://www.w3.org/2000/svg">
<path d="M120.96 112.784C129.267 112.784 136 119.228 136 127.179V133.058C136 136.729 134.802 140.307 132.572 143.293C122.233 157.14 105.352 164 82.4782 164C59.5996 164 42.7267 157.137 32.4131 143.283C30.1931 140.3 29 136.73 29 133.068V127.179C29 119.228 35.7335 112.784 44.0398 112.784H120.96ZM82.4782 36C100.946 36 115.917 50.3295 115.917 68.0057C115.917 85.682 100.946 100.012 82.4782 100.012C64.0104 100.012 49.0394 85.682 49.0394 68.0057C49.0394 50.3295 64.0104 36 82.4782 36Z" fill="black"/>
<circle cx="82" cy="82" r="80" stroke="black" stroke-width="4"/>
</svg>
