<svg width="22" height="22" viewBox="0 0 22 22" fill="none" xmlns="http://www.w3.org/2000/svg">
<path d="M9.10168 0.130601C10.2693 -0.331876 11.5327 0.489362 11.6066 1.72105L4.18168 4.66181C3.13307 5.07712 2.44438 6.09063 2.44438 7.2185V14.5588C1.25928 14.9799 0 14.1017 0 12.8303V5.81169C0 4.55851 0.765213 3.43237 1.93035 2.97091L9.10168 0.130601ZM12.7682 2.57558C13.9716 2.09896 15.2766 2.98572 15.2766 4.28004V4.40522L8.87741 6.93971C7.9453 7.30888 7.33313 8.20978 7.33313 9.21233V16.5206L6.17557 16.9795C4.9721 17.4566 3.66657 16.5699 3.66657 15.2753V7.84142C3.66657 6.83887 4.27874 5.93797 5.21084 5.56879L12.7682 2.57558ZM19.555 6.72322V10.5111C18.6383 10.0425 17.5998 9.77811 16.4996 9.77811C12.787 9.77811 9.77751 12.7876 9.77751 16.5001C9.77751 17.5995 10.0414 18.6371 10.5092 19.5533C9.49157 19.6226 8.55532 18.8188 8.55532 17.7223V9.62762C8.55532 8.87571 9.01445 8.20003 9.71353 7.92316L17.0466 5.01876C18.2501 4.54215 19.555 5.4289 19.555 6.72322ZM21.9994 16.5001C21.9994 19.5377 19.5371 22 16.4996 22C13.462 22 10.9997 19.5377 10.9997 16.5001C10.9997 13.4626 13.462 11.0003 16.4996 11.0003C19.5371 11.0003 21.9994 13.4626 21.9994 16.5001ZM17.1106 14.0558C17.1106 13.7183 16.837 13.4447 16.4996 13.4447C16.1621 13.4447 15.8885 13.7183 15.8885 14.0558V15.8891H14.0552C13.7177 15.8891 13.4441 16.1627 13.4441 16.5001C13.4441 16.8376 13.7177 17.1112 14.0552 17.1112H15.8885V18.9445C15.8885 19.282 16.1621 19.5556 16.4996 19.5556C16.837 19.5556 17.1106 19.282 17.1106 18.9445V17.1112H18.9439C19.2814 17.1112 19.555 16.8376 19.555 16.5001C19.555 16.1627 19.2814 15.8891 18.9439 15.8891H17.1106V14.0558Z" fill="#246097"/>
</svg>
