<svg width="37" height="37" viewBox="0 0 37 37" fill="none" xmlns="http://www.w3.org/2000/svg">
<path d="M18.5188 3.46875C19.6504 3.48179 20.7775 3.61253 21.882 3.85885C22.364 3.96638 22.7246 4.36833 22.7794 4.85927L23.0418 7.21317C23.1606 8.29395 24.0731 9.11255 25.1609 9.11369C25.4534 9.11415 25.7426 9.05325 26.0129 8.9337L28.1721 7.98516C28.6212 7.78787 29.146 7.89543 29.4811 8.2535C31.0416 9.92007 32.2037 11.9189 32.8802 14.0994C33.0261 14.5696 32.8582 15.0806 32.462 15.3727L30.548 16.7835C30.0019 17.1846 29.6796 17.8217 29.6796 18.4992C29.6796 19.1766 30.0019 19.8137 30.5492 20.2157L32.4647 21.627C32.8611 21.919 33.0291 22.43 32.8833 22.9004C32.2071 25.0806 31.0456 27.0792 29.4861 28.7461C29.1512 29.104 28.6269 29.212 28.1778 29.0151L26.0098 28.0653C25.3894 27.7938 24.6772 27.8336 24.0909 28.1724C23.5047 28.5111 23.1147 29.1085 23.0402 29.7815L22.7795 32.1351C22.7257 32.6204 22.373 33.0197 21.8978 33.1327C19.6649 33.664 17.3384 33.664 15.1053 33.1327C14.6303 33.0197 14.2775 32.6204 14.2237 32.1351L13.9634 29.785C13.887 29.1133 13.4963 28.5177 12.9106 28.1801C12.3249 27.8425 11.6137 27.8029 10.9955 28.0728L8.82692 29.0228C8.37776 29.2197 7.8533 29.1118 7.51837 28.7535C5.95796 27.0848 4.79642 25.0837 4.12119 22.9011C3.97574 22.4311 4.14379 21.9203 4.53998 21.6285L6.45678 20.2163C7.00275 19.8152 7.32519 19.1782 7.32519 18.5008C7.32519 17.8232 7.00275 17.1862 6.45605 16.7846L4.54046 15.3748C4.14369 15.0828 3.9755 14.5715 4.12145 14.101C4.79785 11.9204 5.95999 9.92161 7.52045 8.25504C7.8557 7.89697 8.38041 7.78941 8.8295 7.9867L10.9884 8.93507C11.6096 9.2077 12.3238 9.16652 12.9126 8.82248C13.499 8.48239 13.8893 7.88442 13.9647 7.21136L14.2269 4.85927C14.2816 4.36808 14.6425 3.966 15.125 3.8587C16.2308 3.61277 17.3592 3.48209 18.5188 3.46875ZM18.4995 13.8749C15.9452 13.8749 13.8745 15.9456 13.8745 18.5C13.8745 21.0542 15.9452 23.125 18.4995 23.125C21.0538 23.125 23.1245 21.0542 23.1245 18.5C23.1245 15.9456 21.0538 13.8749 18.4995 13.8749Z" fill="#212121"/>
</svg>
