<svg width="44" height="38" viewBox="0 0 44 38" fill="none" xmlns="http://www.w3.org/2000/svg">
<g clip-path="url(#clip0_6_324)">
<path d="M11.6696 4.41861C7.86601 4.41861 4.78261 7.26734 4.78261 10.7814V27.7488C4.78261 31.263 7.86601 34.1116 11.6696 34.1116H19.9332C19.053 32.5207 18.5565 30.7186 18.5565 28.8093C18.5565 22.3668 24.2093 17.1442 31.1826 17.1442C33.2492 17.1442 35.1998 17.6029 36.9217 18.4161V10.7814C36.9217 7.26734 33.8384 4.41861 30.0348 4.41861H11.6696ZM31.1826 38.3535C36.888 38.3535 41.513 34.0805 41.513 28.8093C41.513 23.5382 36.888 19.2651 31.1826 19.2651C25.4772 19.2651 20.8522 23.5382 20.8522 28.8093C20.8522 34.0805 25.4772 38.3535 31.1826 38.3535ZM31.1826 23.507C31.8164 23.507 32.3304 23.9819 32.3304 24.5674V27.7488H35.7739C36.4077 27.7488 36.9217 28.2237 36.9217 28.8093C36.9217 29.3949 36.4077 29.8698 35.7739 29.8698H32.3304V33.0512C32.3304 33.6368 31.8164 34.1116 31.1826 34.1116C30.5488 34.1116 30.0348 33.6368 30.0348 33.0512V29.8698H26.5913C25.9575 29.8698 25.4435 29.3949 25.4435 28.8093C25.4435 28.2237 25.9575 27.7488 26.5913 27.7488H30.0348V24.5674C30.0348 23.9819 30.5488 23.507 31.1826 23.507Z" fill="#246097"/>
</g>
<defs>
<clipPath id="clip0_6_324">
<rect width="44" height="38" fill="white"/>
</clipPath>
</defs>
</svg>
