<svg width="21" height="21" viewBox="0 0 21 21" fill="none" xmlns="http://www.w3.org/2000/svg">
<path d="M6.825 18.9H9.47289C8.79375 17.8392 8.4 16.578 8.4 15.225C8.4 14.6829 8.46321 14.1556 8.58259 13.65H6.825V18.9ZM18.9 6.825V9.47289C17.8392 8.79375 16.578 8.4 15.225 8.4C14.6829 8.4 14.1556 8.46321 13.65 8.58259V6.825H18.9ZM12.075 6.825V9.16881C10.8335 9.81592 9.81592 10.8335 9.16881 12.075H6.825V6.825H12.075ZM18.9 5.25V3.4125C18.9 1.52782 17.3721 0 15.4875 0H13.65V5.25H18.9ZM12.075 0H6.825V5.25H12.075V0ZM5.25 0H3.4125C1.52782 0 0 1.52782 0 3.4125V5.25H5.25V0ZM0 6.825V12.075H5.25V6.825H0ZM0 13.65V15.4875C0 17.3721 1.52782 18.9 3.4125 18.9H5.25V13.65H0ZM21 15.225C21 12.0355 18.4145 9.45 15.225 9.45C12.0355 9.45 9.45 12.0355 9.45 15.225C9.45 18.4145 12.0355 21 15.225 21C18.4145 21 21 18.4145 21 15.225ZM15.7506 15.75L15.7512 18.3787C15.7512 18.6687 15.5162 18.9037 15.2262 18.9037C14.9362 18.9037 14.7012 18.6687 14.7012 18.3787L14.7006 15.75H12.0709C11.781 15.75 11.5459 15.515 11.5459 15.225C11.5459 14.9351 11.781 14.7 12.0709 14.7H14.7005L14.7 12.0743C14.7 11.7844 14.9351 11.5493 15.225 11.5493C15.5149 11.5493 15.75 11.7844 15.75 12.0743L15.7505 14.7H18.3781C18.6682 14.7 18.9031 14.9351 18.9031 15.225C18.9031 15.515 18.6682 15.75 18.3781 15.75H15.7506Z" fill="#246097"/>
</svg>
