<svg width="30" height="30" viewBox="0 0 30 30" fill="none" xmlns="http://www.w3.org/2000/svg">
<path d="M25.4167 0C27.948 0 30 2.05203 30 4.58333V25.4167C30 27.948 27.948 30 25.4167 30H4.58333C2.05203 30 0 27.948 0 25.4167V4.58333C0 2.05203 2.05203 0 4.58333 0H25.4167ZM7.91667 10.0055C7.22632 10.0055 6.66667 10.5627 6.66667 11.2501V22.0942C6.66667 22.7817 7.22632 23.3388 7.91667 23.3388C8.60702 23.3388 9.16667 22.7817 9.16667 22.0942V11.2501C9.16667 10.5627 8.60702 10.0055 7.91667 10.0055ZM22.0833 6.67218C21.393 6.67218 20.8333 7.21646 20.8333 7.88786V22.1232C20.8333 22.7945 21.393 23.3388 22.0833 23.3388C22.7737 23.3388 23.3333 22.7945 23.3333 22.1232V7.88786C23.3333 7.21646 22.7737 6.67218 22.0833 6.67218ZM14.9585 15C14.2845 15.0067 13.7433 15.554 13.75 16.2225L13.809 22.1348C13.8157 22.8033 14.3675 23.34 15.0415 23.3335C15.7155 23.3267 16.2567 22.7793 16.25 22.1108L16.191 16.1987C16.1843 15.5302 15.6325 14.9935 14.9585 15Z" fill="#212121"/>
</svg>
