<svg width="20" height="20" viewBox="0 0 20 20" fill="none" xmlns="http://www.w3.org/2000/svg">
<path d="M7.30434 19.2167C6.35889 19.8275 5.23226 20.0937 4.11388 19.9706C2.99551 19.8474 1.95358 19.3423 1.16334 18.5401L0.472469 17.8635C0.169588 17.5532 0 17.1366 0 16.7027C0 16.2688 0.169588 15.852 0.472469 15.5418L3.4048 12.6357C3.71201 12.3333 4.12551 12.1639 4.55624 12.1639C4.98697 12.1639 5.40048 12.3333 5.70768 12.6357C6.01748 12.9391 6.43354 13.1089 6.8668 13.1089C7.30006 13.1089 7.7161 12.9391 8.0259 12.6357L12.6317 8.02286C12.7853 7.87121 12.9073 7.69049 12.9906 7.4912C13.0739 7.29191 13.1168 7.07801 13.1168 6.86197C13.1168 6.64592 13.0739 6.43204 12.9906 6.23273C12.9073 6.03344 12.7853 5.85272 12.6317 5.70107C12.3298 5.3934 12.1606 4.97926 12.1606 4.54787C12.1606 4.11647 12.3298 3.70234 12.6317 3.39465L15.5486 0.473195C15.8585 0.169847 16.2745 0 16.7077 0C17.1411 0 17.5571 0.169847 17.8669 0.473195L18.5425 1.16513C19.3432 1.95659 19.8475 3.00011 19.9706 4.1202C20.0937 5.2403 19.8278 6.36866 19.2178 7.31556C16.0398 12.0064 11.9962 16.0458 7.30434 19.2167Z" fill="#626262"/>
</svg>
