<svg width="31" height="33" viewBox="0 0 31 33" fill="none" xmlns="http://www.w3.org/2000/svg">
<path d="M17.9986 0.920977C16.5554 -0.306992 14.4446 -0.306992 13.0014 0.920977L1.37633 10.8117C0.503595 11.5542 0 12.6471 0 13.7987V29.9605C0 31.6392 1.34936 33 3.01389 33H8.18056C9.84508 33 11.1944 31.6392 11.1944 29.9605V23.0085C11.1944 21.8286 12.1275 20.8686 13.2902 20.8381H17.7098C18.8725 20.8686 19.8056 21.8286 19.8056 23.0085V29.9605C19.8056 31.6392 21.1549 33 22.8194 33H27.9861C29.6506 33 31 31.6392 31 29.9605V13.7987C31 12.6471 30.4964 11.5542 29.6236 10.8117L17.9986 0.920977Z" fill="#212121"/>
</svg>
